<?xml version="1.0" encoding="utf-8"?>
<!-- Generator: Adobe Illustrator 27.4.0, SVG Export Plug-In . SVG Version: 6.00 Build 0)  -->
<svg version="1.1" id="Layer_1" xmlns="http://www.w3.org/2000/svg" xmlns:xlink="http://www.w3.org/1999/xlink" x="0px" y="0px"
	 viewBox="0 0 478 416" style="enable-background:new 0 0 478 416;" xml:space="preserve">
<style type="text/css">
	.st0{fill:#E8EAF6;}
	.st1{filter:url(#Adobe_OpacityMaskFilter);}
	.st2{fill-rule:evenodd;clip-rule:evenodd;fill:#FFFFFF;}
	.st3{mask:url(#b_00000134929325750074315320000005502707292602914975_);}
	.st4{fill-rule:evenodd;clip-rule:evenodd;fill:#11D28C;}
	.st5{opacity:0.245;fill-rule:evenodd;clip-rule:evenodd;fill:#FFFFFF;enable-background:new    ;}
	.st6{opacity:0.75;fill-rule:evenodd;clip-rule:evenodd;fill:#FFFFFF;enable-background:new    ;}
	.st7{opacity:0.25;fill-rule:evenodd;clip-rule:evenodd;fill:#FFFFFF;enable-background:new    ;}
	.st8{fill-rule:evenodd;clip-rule:evenodd;}
	.st9{opacity:0.5;fill-rule:evenodd;clip-rule:evenodd;fill:#11D28C;enable-background:new    ;}
	.st10{opacity:0.25;fill-rule:evenodd;clip-rule:evenodd;fill:#11D28C;enable-background:new    ;}
	.st11{fill-rule:evenodd;clip-rule:evenodd;fill:#FA5959;}
	.st12{fill-rule:evenodd;clip-rule:evenodd;fill:#11D28C;fill-opacity:0.2;stroke:#11D28C;stroke-width:20;}
	.st13{fill:none;stroke:#11D28C;stroke-width:20;stroke-linecap:round;stroke-linejoin:round;}
</style>
<g>
	<g>
		<path id="a_00000121239887923293998130000017100799167885188799_" class="st0" d="M8,0h334c4.4,0,8,3.6,8,8v330c0,4.4-3.6,8-8,8H8
			c-4.4,0-8-3.6-8-8V8C0,3.6,3.6,0,8,0z"/>
	</g>
	<defs>
		<filter id="Adobe_OpacityMaskFilter" filterUnits="userSpaceOnUse" x="-3.5" y="0.2" width="547" height="59">
			<feColorMatrix  type="matrix" values="1 0 0 0 0  0 1 0 0 0  0 0 1 0 0  0 0 0 1 0"/>
		</filter>
	</defs>
	
		<mask maskUnits="userSpaceOnUse" x="-3.5" y="0.2" width="547" height="59" id="b_00000134929325750074315320000005502707292602914975_">
		<g class="st1">
			<path id="a_00000171702909109588688620000003335887581771864201_" class="st2" d="M8,0h334c4.4,0,8,3.6,8,8v330c0,4.4-3.6,8-8,8
				H8c-4.4,0-8-3.6-8-8V8C0,3.6,3.6,0,8,0z"/>
		</g>
	</mask>
	<g class="st3">
		<path class="st4" d="M-3.5,0.2h547v59h-547L-3.5,0.2z"/>
		<g transform="translate(22.47 14.197)">
			<circle class="st5" cx="16" cy="16" r="16"/>
			<g transform="translate(47 6)">
				<path class="st6" d="M3,0h114c1.7,0,3,1.3,3,3l0,0c0,1.7-1.3,3-3,3H3C1.3,6,0,4.7,0,3l0,0C0,1.3,1.3,0,3,0z"/>
				<path class="st7" d="M3,14h58c1.7,0,3,1.3,3,3l0,0c0,1.7-1.3,3-3,3H3c-1.7,0-3-1.3-3-3l0,0C0,15.3,1.3,14,3,14z"/>
			</g>
		</g>
	</g>
	<g transform="translate(27 138)">
		<g>
			<path id="d" class="st8" d="M8,0h184c4.4,0,8,3.6,8,8v239c0,4.4-3.6,8-8,8H8c-4.4,0-8-3.6-8-8V8C0,3.6,3.6,0,8,0z"/>
		</g>
		<g>
			<path id="d_00000093879645053965131010000017691548279187787678_" class="st2" d="M8,0h184c4.4,0,8,3.6,8,8v239c0,4.4-3.6,8-8,8
				H8c-4.4,0-8-3.6-8-8V8C0,3.6,3.6,0,8,0z"/>
		</g>
		<g transform="translate(23 29)">
			<path class="st9" d="M48.7,6H144c1.7,0,3,1.3,3,3l0,0c0,1.7-1.3,3-3,3H48.7c-1.7,0-3-1.3-3-3l0,0C45.7,7.3,47,6,48.7,6z"/>
			<circle class="st4" cx="16" cy="16" r="16"/>
			<path class="st10" d="M48.7,20h48c1.7,0,3,1.3,3,3l0,0c0,1.7-1.3,3-3,3h-48c-1.7,0-3-1.3-3-3l0,0C45.7,21.3,47,20,48.7,20z"/>
			<g transform="translate(0 56)">
				<circle class="st4" cx="16" cy="16" r="16"/>
				<path class="st9" d="M48.7,6H144c1.7,0,3,1.3,3,3l0,0c0,1.7-1.3,3-3,3H48.7c-1.7,0-3-1.3-3-3l0,0C45.7,7.3,47,6,48.7,6z"/>
				<path class="st10" d="M48.7,20h48c1.7,0,3,1.3,3,3l0,0c0,1.7-1.3,3-3,3h-48c-1.7,0-3-1.3-3-3l0,0C45.7,21.3,47,20,48.7,20z"/>
			</g>
			<g transform="translate(0 112)">
				<circle class="st4" cx="16" cy="16" r="16"/>
				<path class="st9" d="M48.7,6H144c1.7,0,3,1.3,3,3l0,0c0,1.7-1.3,3-3,3H48.7c-1.7,0-3-1.3-3-3l0,0C45.7,7.3,47,6,48.7,6z"/>
				<path class="st10" d="M48.7,20h48c1.7,0,3,1.3,3,3l0,0c0,1.7-1.3,3-3,3h-48c-1.7,0-3-1.3-3-3l0,0C45.7,21.3,47,20,48.7,20z"/>
			</g>
			<g transform="translate(0 168)">
				<circle class="st4" cx="16" cy="16" r="16"/>
				<path class="st9" d="M48.7,6H144c1.7,0,3,1.3,3,3l0,0c0,1.7-1.3,3-3,3H48.7c-1.7,0-3-1.3-3-3l0,0C45.7,7.3,47,6,48.7,6z"/>
				<path class="st10" d="M48.7,20h48c1.7,0,3,1.3,3,3l0,0c0,1.7-1.3,3-3,3h-48c-1.7,0-3-1.3-3-3l0,0C45.7,21.3,47,20,48.7,20z"/>
			</g>
		</g>
	</g>
	<g transform="translate(251 138)">
		<g>
			<path id="g" class="st8" d="M8,0h184c4.4,0,8,3.6,8,8v239c0,4.4-3.6,8-8,8H8c-4.4,0-8-3.6-8-8V8C0,3.6,3.6,0,8,0z"/>
		</g>
		<g>
			<path id="g_00000065073032752987606000000015129701215594767542_" class="st2" d="M8,0h184c4.4,0,8,3.6,8,8v239c0,4.4-3.6,8-8,8
				H8c-4.4,0-8-3.6-8-8V8C0,3.6,3.6,0,8,0z"/>
		</g>
		<g transform="translate(23 29)">
			<path class="st9" d="M48.7,6H144c1.7,0,3,1.3,3,3l0,0c0,1.7-1.3,3-3,3H48.7c-1.7,0-3-1.3-3-3l0,0C45.7,7.3,47,6,48.7,6z"/>
			<circle class="st4" cx="16" cy="16" r="16"/>
			<path class="st10" d="M48.7,20h48c1.7,0,3,1.3,3,3l0,0c0,1.7-1.3,3-3,3h-48c-1.7,0-3-1.3-3-3l0,0C45.7,21.3,47,20,48.7,20z"/>
			<g transform="translate(0 56)">
				<circle class="st11" cx="16" cy="16" r="16"/>
				<path class="st9" d="M48.7,6H144c1.7,0,3,1.3,3,3l0,0c0,1.7-1.3,3-3,3H48.7c-1.7,0-3-1.3-3-3l0,0C45.7,7.3,47,6,48.7,6z"/>
				<path class="st10" d="M48.7,20h48c1.7,0,3,1.3,3,3l0,0c0,1.7-1.3,3-3,3h-48c-1.7,0-3-1.3-3-3l0,0C45.7,21.3,47,20,48.7,20z"/>
			</g>
			<g transform="translate(0 112)">
				<circle class="st4" cx="16" cy="16" r="16"/>
				<path class="st9" d="M48.7,6H144c1.7,0,3,1.3,3,3l0,0c0,1.7-1.3,3-3,3H48.7c-1.7,0-3-1.3-3-3l0,0C45.7,7.3,47,6,48.7,6z"/>
				<path class="st10" d="M48.7,20h48c1.7,0,3,1.3,3,3l0,0c0,1.7-1.3,3-3,3h-48c-1.7,0-3-1.3-3-3l0,0C45.7,21.3,47,20,48.7,20z"/>
			</g>
			<g transform="translate(0 168)">
				<circle class="st4" cx="16" cy="16" r="16"/>
				<path class="st9" d="M48.7,6H144c1.7,0,3,1.3,3,3l0,0c0,1.7-1.3,3-3,3H48.7c-1.7,0-3-1.3-3-3l0,0C45.7,7.3,47,6,48.7,6z"/>
				<path class="st10" d="M48.7,20h48c1.7,0,3,1.3,3,3l0,0c0,1.7-1.3,3-3,3h-48c-1.7,0-3-1.3-3-3l0,0C45.7,21.3,47,20,48.7,20z"/>
			</g>
		</g>
	</g>
	<path class="st2" d="M35,85h221c4.4,0,8,3.6,8,8v18c0,4.4-3.6,8-8,8H35c-4.4,0-8-3.6-8-8V93C27,88.6,30.6,85,35,85z"/>
	<g transform="translate(305 102)">
		<circle class="st12" cx="67" cy="67" r="67"/>
		<path class="st13" d="M114,115l49,49"/>
	</g>
</g>
</svg>
